<svg width="74" height="51" viewBox="0 0 74 51" fill="none" xmlns="http://www.w3.org/2000/svg">
<g clip-path="url(#clip0_8490_16551)">
<path d="M36.5184 47.4118C48.816 47.4118 58.7851 37.4426 58.7851 25.145C58.7851 12.8475 48.816 2.87833 36.5184 2.87833C24.2209 2.87833 14.2517 12.8475 14.2517 25.145C14.2517 37.4426 24.2209 47.4118 36.5184 47.4118Z" fill="#FFCF70" stroke="#FFDFA1" stroke-width="4.50956" stroke-miterlimit="10" stroke-linecap="round"/>
<path d="M36.5195 25.1449H60.1794C60.1793 29.298 59.086 33.378 57.0096 36.9748C54.9332 40.5715 51.9467 43.5585 48.3502 45.6354L36.5195 25.1449Z" stroke="#7C4F2B" stroke-width="0.450956" stroke-linecap="round" stroke-linejoin="round"/>
<path d="M36.4691 25.1449L48.2984 45.634C44.7021 47.7111 40.6222 48.8047 36.4691 48.8047C32.3161 48.8047 28.2362 47.7111 24.6399 45.634L36.4691 25.1449Z" stroke="#7C4F2B" stroke-width="0.450956" stroke-linecap="round" stroke-linejoin="round"/>
<path d="M36.5224 25.134L24.6918 45.623C21.0952 43.5465 18.1086 40.5599 16.0321 36.9633C13.9557 33.3667 12.8625 29.2869 12.8625 25.134H36.5224Z" stroke="#7C4F2B" stroke-width="0.450956" stroke-linecap="round" stroke-linejoin="round"/>
<path d="M36.5195 25.1216H60.1794C60.1793 20.9685 59.086 16.8886 57.0096 13.2918C54.9332 9.69504 51.9467 6.70812 48.3502 4.6312L36.5195 25.1216Z" stroke="#7C4F2B" stroke-width="0.450956" stroke-linecap="round" stroke-linejoin="round"/>
<path d="M36.4663 25.1209L48.2984 4.63189C44.7021 2.55475 40.6222 1.46118 36.4691 1.46118C32.3161 1.46118 28.2362 2.55475 24.6399 4.63189L36.4663 25.1209Z" stroke="#7C4F2B" stroke-width="0.450956" stroke-linecap="round" stroke-linejoin="round"/>
<path d="M36.5224 25.1338L24.6918 4.64334C21.095 6.71994 18.1083 9.70679 16.0318 13.3036C13.9553 16.9005 12.8623 20.9806 12.8625 25.1338H36.5224Z" stroke="#7C4F2B" stroke-width="0.450956" stroke-linecap="round" stroke-linejoin="round"/>
<path d="M36.5175 48.8052C49.5845 48.8052 60.1774 38.2124 60.1774 25.1454C60.1774 12.0784 49.5845 1.4855 36.5175 1.4855C23.4505 1.4855 12.8577 12.0784 12.8577 25.1454C12.8577 38.2124 23.4505 48.8052 36.5175 48.8052Z" stroke="#7C4F2B" stroke-width="0.901913" stroke-linecap="round" stroke-linejoin="round"/>
<path d="M30.1746 19.6793C33.2191 19.6793 35.6873 17.2112 35.6873 14.1666C35.6873 11.122 33.2191 8.6539 30.1746 8.6539C27.13 8.6539 24.6619 11.122 24.6619 14.1666C24.6619 17.2112 27.13 19.6793 30.1746 19.6793Z" fill="#FF7070" stroke="#7C4F2B" stroke-width="0.901913" stroke-miterlimit="10"/>
<path d="M26.8301 14.7346C27.1447 14.7346 27.3999 14.4795 27.3999 14.1648C27.3999 13.8501 27.1447 13.595 26.8301 13.595C26.5154 13.595 26.2603 13.8501 26.2603 14.1648C26.2603 14.4795 26.5154 14.7346 26.8301 14.7346Z" fill="#D95757"/>
<path d="M30.5984 15.3246C30.9131 15.3246 31.1682 15.0695 31.1682 14.7548C31.1682 14.4401 30.9131 14.185 30.5984 14.185C30.2837 14.185 30.0286 14.4401 30.0286 14.7548C30.0286 15.0695 30.2837 15.3246 30.5984 15.3246Z" fill="#D95757"/>
<path d="M28.8613 11.893C29.176 11.893 29.4311 11.6379 29.4311 11.3232C29.4311 11.0085 29.176 10.7534 28.8613 10.7534C28.5466 10.7534 28.2915 11.0085 28.2915 11.3232C28.2915 11.6379 28.5466 11.893 28.8613 11.893Z" fill="#D95757"/>
<path d="M33.5105 16.4765C33.8252 16.4765 34.0803 16.2214 34.0803 15.9067C34.0803 15.592 33.8252 15.3369 33.5105 15.3369C33.1958 15.3369 32.9407 15.592 32.9407 15.9067C32.9407 16.2214 33.1958 16.4765 33.5105 16.4765Z" fill="#D95757"/>
<path d="M28.6084 17.8608C28.9231 17.8608 29.1782 17.6057 29.1782 17.291C29.1782 16.9763 28.9231 16.7212 28.6084 16.7212C28.2937 16.7212 28.0386 16.9763 28.0386 17.291C28.0386 17.6057 28.2937 17.8608 28.6084 17.8608Z" fill="#D95757"/>
<path d="M32.6687 12.6971C32.9834 12.6971 33.2385 12.442 33.2385 12.1273C33.2385 11.8126 32.9834 11.5575 32.6687 11.5575C32.354 11.5575 32.0989 11.8126 32.0989 12.1273C32.0989 12.442 32.354 12.6971 32.6687 12.6971Z" fill="#D95757"/>
<path d="M49.1919 30.6624C52.2365 30.6624 54.7046 28.1942 54.7046 25.1497C54.7046 22.1051 52.2365 19.637 49.1919 19.637C46.1473 19.637 43.6792 22.1051 43.6792 25.1497C43.6792 28.1942 46.1473 30.6624 49.1919 30.6624Z" fill="#FF7070" stroke="#7C4F2B" stroke-width="0.901913" stroke-miterlimit="10"/>
<path d="M50.8738 22.8274C51.1884 22.8274 51.4436 22.5723 51.4436 22.2576C51.4436 21.9429 51.1884 21.6878 50.8738 21.6878C50.5591 21.6878 50.304 21.9429 50.304 22.2576C50.304 22.5723 50.5591 22.8274 50.8738 22.8274Z" fill="#D95757"/>
<path d="M48.4702 25.7894C48.7849 25.7894 49.04 25.5343 49.04 25.2196C49.04 24.9049 48.7849 24.6498 48.4702 24.6498C48.1555 24.6498 47.9004 24.9049 47.9004 25.2196C47.9004 25.5343 48.1555 25.7894 48.4702 25.7894Z" fill="#D95757"/>
<path d="M52.3091 26.0108C52.6237 26.0108 52.8789 25.7557 52.8789 25.441C52.8789 25.1263 52.6237 24.8712 52.3091 24.8712C51.9944 24.8712 51.7393 25.1263 51.7393 25.441C51.7393 25.7557 51.9944 26.0108 52.3091 26.0108Z" fill="#D95757"/>
<path d="M46.0129 27.7308C46.3276 27.7308 46.5827 27.4757 46.5827 27.161C46.5827 26.8464 46.3276 26.5912 46.0129 26.5912C45.6982 26.5912 45.4431 26.8464 45.4431 27.161C45.4431 27.4757 45.6982 27.7308 46.0129 27.7308Z" fill="#D95757"/>
<path d="M47.2756 22.7958C47.5903 22.7958 47.8454 22.5407 47.8454 22.226C47.8454 21.9113 47.5903 21.6562 47.2756 21.6562C46.9609 21.6562 46.7058 21.9113 46.7058 22.226C46.7058 22.5407 46.9609 22.7958 47.2756 22.7958Z" fill="#D95757"/>
<path d="M49.7036 28.8998C50.0183 28.8998 50.2734 28.6447 50.2734 28.33C50.2734 28.0153 50.0183 27.7602 49.7036 27.7602C49.3889 27.7602 49.1338 28.0153 49.1338 28.33C49.1338 28.6447 49.3889 28.8998 49.7036 28.8998Z" fill="#D95757"/>
<path d="M30.2305 41.7427C33.275 41.7427 35.7432 39.2746 35.7432 36.23C35.7432 33.1855 33.275 30.7173 30.2305 30.7173C27.1859 30.7173 24.7178 33.1855 24.7178 36.23C24.7178 39.2746 27.1859 41.7427 30.2305 41.7427Z" fill="#FF7070" stroke="#7C4F2B" stroke-width="0.901913" stroke-miterlimit="10"/>
<path d="M31.9243 39.6834C32.239 39.6834 32.4941 39.4283 32.4941 39.1136C32.4941 38.7989 32.239 38.5438 31.9243 38.5438C31.6096 38.5438 31.3545 38.7989 31.3545 39.1136C31.3545 39.4283 31.6096 39.6834 31.9243 39.6834Z" fill="#D95757"/>
<path d="M30.5205 36.1363C30.8352 36.1363 31.0903 35.8812 31.0903 35.5665C31.0903 35.2518 30.8352 34.9967 30.5205 34.9967C30.2058 34.9967 29.9507 35.2518 29.9507 35.5665C29.9507 35.8812 30.2058 36.1363 30.5205 36.1363Z" fill="#D95757"/>
<path d="M28.4477 39.3744C28.7624 39.3744 29.0175 39.1193 29.0175 38.8046C29.0175 38.4899 28.7624 38.2348 28.4477 38.2348C28.133 38.2348 27.8779 38.4899 27.8779 38.8046C27.8779 39.1193 28.133 39.3744 28.4477 39.3744Z" fill="#D95757"/>
<path d="M30.0364 33.0429C30.351 33.0429 30.6061 32.7878 30.6061 32.4731C30.6061 32.1585 30.351 31.9034 30.0364 31.9034C29.7217 31.9034 29.4666 32.1585 29.4666 32.4731C29.4666 32.7878 29.7217 33.0429 30.0364 33.0429Z" fill="#D95757"/>
<path d="M33.7173 36.5645C34.0319 36.5645 34.2871 36.3094 34.2871 35.9947C34.2871 35.68 34.0319 35.4249 33.7173 35.4249C33.4026 35.4249 33.1475 35.68 33.1475 35.9947C33.1475 36.3094 33.4026 36.5645 33.7173 36.5645Z" fill="#D95757"/>
<path d="M27.207 35.6874C27.5217 35.6874 27.7768 35.4323 27.7768 35.1176C27.7768 34.803 27.5217 34.5479 27.207 34.5479C26.8923 34.5479 26.6372 34.803 26.6372 35.1176C26.6372 35.4323 26.8923 35.6874 27.207 35.6874Z" fill="#D95757"/>
<path d="M36.5222 42.7471C37.2223 42.7471 37.7899 42.1795 37.7899 41.4793C37.7899 40.7791 37.2223 40.2115 36.5222 40.2115C35.822 40.2115 35.2544 40.7791 35.2544 41.4793C35.2544 42.1795 35.822 42.7471 36.5222 42.7471Z" fill="#FFDFA1"/>
<path d="M36.5211 31.0342C36.8296 31.0342 37.0797 30.7841 37.0797 30.4756C37.0797 30.167 36.8296 29.9169 36.5211 29.9169C36.2125 29.9169 35.9624 30.167 35.9624 30.4756C35.9624 30.7841 36.2125 31.0342 36.5211 31.0342Z" fill="#FFDFA1"/>
<path d="M51.7628 34.7285C52.0713 34.7285 52.3214 34.4784 52.3214 34.1699C52.3214 33.8613 52.0713 33.6112 51.7628 33.6112C51.4542 33.6112 51.2041 33.8613 51.2041 34.1699C51.2041 34.4784 51.4542 34.7285 51.7628 34.7285Z" fill="#FFDFA1"/>
<path d="M34.7864 9.89404C35.095 9.89404 35.3451 9.64392 35.3451 9.33539C35.3451 9.02685 35.095 8.77673 34.7864 8.77673C34.4779 8.77673 34.2278 9.02685 34.2278 9.33539C34.2278 9.64392 34.4779 9.89404 34.7864 9.89404Z" fill="#FFDFA1"/>
<path d="M22.3594 34.1689C22.668 34.1689 22.9181 33.9188 22.9181 33.6103C22.9181 33.3018 22.668 33.0516 22.3594 33.0516C22.0509 33.0516 21.8008 33.3018 21.8008 33.6103C21.8008 33.9188 22.0509 34.1689 22.3594 34.1689Z" fill="#FFDFA1"/>
<path d="M26.2593 30.302C26.5679 30.302 26.818 30.0519 26.818 29.7433C26.818 29.4348 26.5679 29.1847 26.2593 29.1847C25.9508 29.1847 25.7007 29.4348 25.7007 29.7433C25.7007 30.0519 25.9508 30.302 26.2593 30.302Z" fill="#FFDFA1"/>
<path d="M18.355 31.1024C18.6636 31.1024 18.9137 30.8522 18.9137 30.5437C18.9137 30.2352 18.6636 29.985 18.355 29.985C18.0465 29.985 17.7964 30.2352 17.7964 30.5437C17.7964 30.8522 18.0465 31.1024 18.355 31.1024Z" fill="#FFDFA1"/>
<path d="M31.5848 44.1655C31.8933 44.1655 32.1434 43.9154 32.1434 43.6069C32.1434 43.2983 31.8933 43.0482 31.5848 43.0482C31.2762 43.0482 31.0261 43.2983 31.0261 43.6069C31.0261 43.9154 31.2762 44.1655 31.5848 44.1655Z" fill="#FFDFA1"/>
<path d="M37.7884 36.1468C38.0969 36.1468 38.347 35.8967 38.347 35.5882C38.347 35.2797 38.0969 35.0295 37.7884 35.0295C37.4799 35.0295 37.2297 35.2797 37.2297 35.5882C37.2297 35.8967 37.4799 36.1468 37.7884 36.1468Z" fill="#FFDFA1"/>
<path d="M42.3087 43.6072C42.6172 43.6072 42.8673 43.3571 42.8673 43.0485C42.8673 42.74 42.6172 42.4899 42.3087 42.4899C42.0001 42.4899 41.75 42.74 41.75 43.0485C41.75 43.3571 42.0001 43.6072 42.3087 43.6072Z" fill="#FFDFA1"/>
<path d="M55.035 30.8603C55.3435 30.8603 55.5936 30.6102 55.5936 30.3016C55.5936 29.9931 55.3435 29.743 55.035 29.743C54.7264 29.743 54.4763 29.9931 54.4763 30.3016C54.4763 30.6102 54.7264 30.8603 55.035 30.8603Z" fill="#FFDFA1"/>
<path d="M48.858 33.6009C49.1665 33.6009 49.4166 33.3508 49.4166 33.0422C49.4166 32.7337 49.1665 32.4836 48.858 32.4836C48.5494 32.4836 48.2993 32.7337 48.2993 33.0422C48.2993 33.3508 48.5494 33.6009 48.858 33.6009Z" fill="#FFDFA1"/>
<path d="M49.6072 38.9884C49.9158 38.9884 50.1659 38.7383 50.1659 38.4298C50.1659 38.1212 49.9158 37.8711 49.6072 37.8711C49.2987 37.8711 49.0486 38.1212 49.0486 38.4298C49.0486 38.7383 49.2987 38.9884 49.6072 38.9884Z" fill="#FFDFA1"/>
<path d="M41.7491 7.80304C42.0576 7.80304 42.3077 7.55292 42.3077 7.24438C42.3077 6.93585 42.0576 6.68573 41.7491 6.68573C41.4405 6.68573 41.1904 6.93585 41.1904 7.24438C41.1904 7.55292 41.4405 7.80304 41.7491 7.80304Z" fill="#FFDFA1"/>
<path d="M37.7884 13.1139C38.0969 13.1139 38.347 12.8638 38.347 12.5553C38.347 12.2467 38.0969 11.9966 37.7884 11.9966C37.4799 11.9966 37.2297 12.2467 37.2297 12.5553C37.2297 12.8638 37.4799 13.1139 37.7884 13.1139Z" fill="#FFDFA1"/>
<path d="M55.2125 20.6715C55.521 20.6715 55.7711 20.4214 55.7711 20.1129C55.7711 19.8043 55.521 19.5542 55.2125 19.5542C54.9039 19.5542 54.6538 19.8043 54.6538 20.1129C54.6538 20.4214 54.9039 20.6715 55.2125 20.6715Z" fill="#FFDFA1"/>
<path d="M22.919 12.6857C23.2275 12.6857 23.4777 12.4356 23.4777 12.1271C23.4777 11.8185 23.2275 11.5684 22.919 11.5684C22.6105 11.5684 22.3604 11.8185 22.3604 12.1271C22.3604 12.4356 22.6105 12.6857 22.919 12.6857Z" fill="#FFDFA1"/>
<path d="M23.6683 40.5625C23.9768 40.5625 24.2269 40.3124 24.2269 40.0038C24.2269 39.6953 23.9768 39.4452 23.6683 39.4452C23.3597 39.4452 23.1096 39.6953 23.1096 40.0038C23.1096 40.3124 23.3597 40.5625 23.6683 40.5625Z" fill="#FFDFA1"/>
<path d="M45.0115 18.9856C45.3201 18.9856 45.5702 18.7355 45.5702 18.4269C45.5702 18.1184 45.3201 17.8683 45.0115 17.8683C44.703 17.8683 44.4529 18.1184 44.4529 18.4269C44.4529 18.7355 44.703 18.9856 45.0115 18.9856Z" fill="#FFDFA1"/>
<path d="M32.098 7.03546C32.4065 7.03546 32.6566 6.78534 32.6566 6.4768C32.6566 6.16827 32.4065 5.91815 32.098 5.91815C31.7894 5.91815 31.5393 6.16827 31.5393 6.4768C31.5393 6.78534 31.7894 7.03546 32.098 7.03546Z" fill="#FFDFA1"/>
<path d="M28.5462 23.108C28.8547 23.108 29.1049 22.8579 29.1049 22.5494C29.1049 22.2408 28.8547 21.9907 28.5462 21.9907C28.2377 21.9907 27.9875 22.2408 27.9875 22.5494C27.9875 22.8579 28.2377 23.108 28.5462 23.108Z" fill="#FFDFA1"/>
<path d="M18.9146 20.6715C19.2231 20.6715 19.4733 20.4214 19.4733 20.1129C19.4733 19.8043 19.2231 19.5542 18.9146 19.5542C18.6061 19.5542 18.356 19.8043 18.356 20.1129C18.356 20.4214 18.6061 20.6715 18.9146 20.6715Z" fill="#FFDFA1"/>
<path d="M41.2625 23.108C41.571 23.108 41.8212 22.8579 41.8212 22.5494C41.8212 22.2408 41.571 21.9907 41.2625 21.9907C40.954 21.9907 40.7039 22.2408 40.7039 22.5494C40.7039 22.8579 40.954 23.108 41.2625 23.108Z" fill="#FFDFA1"/>
<path d="M31.845 23.108C32.1536 23.108 32.4037 22.8579 32.4037 22.5494C32.4037 22.2408 32.1536 21.9907 31.845 21.9907C31.5365 21.9907 31.2864 22.2408 31.2864 22.5494C31.2864 22.8579 31.5365 23.108 31.845 23.108Z" fill="#FFDFA1"/>
<path d="M42.3073 30.0233C43.0075 30.0233 43.5751 29.4557 43.5751 28.7555C43.5751 28.0553 43.0075 27.4877 42.3073 27.4877C41.6071 27.4877 41.0396 28.0553 41.0396 28.7555C41.0396 29.4557 41.6071 30.0233 42.3073 30.0233Z" fill="#FFDFA1"/>
<path d="M37.2277 20.7408C37.9279 20.7408 38.4955 20.1732 38.4955 19.473C38.4955 18.7728 37.9279 18.2052 37.2277 18.2052C36.5276 18.2052 35.96 18.7728 35.96 19.473C35.96 20.1732 36.5276 20.7408 37.2277 20.7408Z" fill="#FFDFA1"/>
<path d="M31.2866 29.1852C31.9867 29.1852 32.5543 28.6176 32.5543 27.9174C32.5543 27.2172 31.9867 26.6496 31.2866 26.6496C30.5864 26.6496 30.0188 27.2172 30.0188 27.9174C30.0188 28.6176 30.5864 29.1852 31.2866 29.1852Z" fill="#FFDFA1"/>
<path d="M50.871 18.6911C51.5712 18.6911 52.1388 18.1235 52.1388 17.4233C52.1388 16.7231 51.5712 16.1555 50.871 16.1555C50.1709 16.1555 49.6033 16.7231 49.6033 17.4233C49.6033 18.1235 50.1709 18.6911 50.871 18.6911Z" fill="#FFDFA1"/>
<path d="M22.4018 18.0975C23.102 18.0975 23.6696 17.5299 23.6696 16.8297C23.6696 16.1295 23.102 15.562 22.4018 15.562C21.7016 15.562 21.134 16.1295 21.134 16.8297C21.134 17.5299 21.7016 18.0975 22.4018 18.0975Z" fill="#FFDFA1"/>
<path d="M45.4592 10.0626C43.6941 9.04422 40.8172 8.88261 39.608 10.9765C38.5728 12.7695 40.2056 14.6349 41.5584 13.6124C41.2087 14.1557 40.4007 15.0961 41.2672 15.5948C41.5458 15.7341 41.7924 15.8916 42.0167 16.0309C42.241 16.1702 42.5071 16.2942 42.7704 16.4627C43.6342 16.9629 44.0465 15.794 44.3405 15.2187C44.1301 16.8974 46.5626 17.3794 47.5963 15.5865C48.8013 13.4925 47.2466 11.0991 45.4592 10.0626Z" fill="#FFDFA1" stroke="#7C4F2B" stroke-width="0.901913" stroke-linecap="round" stroke-linejoin="round"/>
<path d="M45.3836 40.2725C43.6185 41.2923 40.7416 41.4525 39.5324 39.3586C38.4972 37.5656 40.1314 35.7002 41.4828 36.7227C41.1331 36.1808 40.3265 35.239 41.1916 34.7403C41.4702 34.601 41.7168 34.4435 41.9411 34.3042C42.1654 34.1649 42.4315 34.0409 42.6948 33.8724C43.5586 33.3722 43.9709 34.5425 44.2663 35.1164C44.0545 33.4447 46.487 32.9557 47.5221 34.7486C48.7271 36.8426 47.1696 39.2416 45.3836 40.2725Z" fill="#FFDFA1" stroke="#7C4F2B" stroke-width="0.901913" stroke-linecap="round" stroke-linejoin="round"/>
<path d="M18.9131 25.3285C18.9131 27.3666 20.2115 29.9384 22.63 29.9384C24.7002 29.9384 25.4985 27.5909 23.9396 26.9348C24.5846 26.9668 25.8036 27.1953 25.8022 26.1964C25.7883 25.8843 25.8022 25.5932 25.8022 25.3285C25.8022 25.0638 25.7855 24.7712 25.8022 24.4605C25.8022 23.4616 24.5846 23.6901 23.9396 23.7222C25.4985 23.0646 24.7002 20.7171 22.63 20.7171C20.2115 20.7116 18.9131 23.2638 18.9131 25.3285Z" fill="#FFDFA1" stroke="#7C4F2B" stroke-width="0.901913" stroke-linecap="round" stroke-linejoin="round"/>
</g>
<path d="M52.1261 7.3949C55.8629 5.21507 62.3936 3.72273 63.7722 6.47999C65.5935 10.1226 53.9935 22.6533 38.8599 31.7037C30.7058 36.5802 19.7579 40.4849 13.3248 41.3572C-1.37349 43.3502 7.38765 35.006 13.2005 30.7502L13.3248 32.3072C12.0792 33.449 11.4923 35.4766 12.3906 36.3748C13.0134 36.9976 17.0616 38.5546 33.566 30.4581C50.0704 22.3616 57.2327 12.0853 57.2327 8.97124C57.2327 7.17264 54.4301 7.08349 52.8731 7.7063H52.4375L52.1261 7.3949Z" fill="#008453"/>
<path d="M66.5746 4.61161C65.0238 1.50931 53.6828 5.19575 51.503 6.7721L52.1258 7.08351L52.4372 7.39491C54.6556 6.46059 61.0211 3.83085 62.215 6.79143C63.5963 10.2169 53.3765 24.1511 34.8114 33.2608C16.2463 42.3705 9.2282 41.1804 8.6535 39.4888C7.59554 36.3748 11.612 32.3463 13.0131 31.0616L12.5775 29.1932C6.03882 33.9816 -4.60583 48.698 13.0131 44.7827C49.4474 36.6862 70.3114 12.0871 66.5746 4.61161Z" fill="#50A684"/>
<path d="M72.18 2.43179C71.2909 -1.36713 55.8628 3.65806 51.1917 6.1493L51.5031 6.7721H51.8145C54.6172 5.21508 65.1012 2.19995 66.4505 5.52648C67.7998 8.85302 56.7275 26.4505 35.7458 36.6862C14.764 46.9219 4.92011 45.1618 4.2706 43.2611C3.07492 39.7622 8.218 33.7806 12.889 29.5046L12.5776 28.259C4.48117 33.8642 -8.88614 51.8449 8.96501 49.7652C41.0396 46.0283 75.6054 17.0678 72.18 2.43179Z" fill="#99E3C6"/>
<path d="M50.5 5.99997C59.8421 1.3289 71.6754 -1.03543 72.5 3.49997C74.5 14.5 47.5 42.9999 10.5 49.4999C-6.68971 52.5197 2.00001 36.4999 12.5001 27.9999" stroke="#7C4F2B" stroke-width="1.5"/>
<path d="M56.0854 12.0659C51.8476 5.68466 44.5958 1.47821 36.3615 1.47821C23.2945 1.47821 12.7017 12.0711 12.7017 25.1381C12.7017 29.5437 13.9058 33.668 16.0029 37.2" stroke="#7C4F2B" stroke-width="1.5" stroke-linecap="round" stroke-linejoin="round"/>
<path d="M25 46C29.5 48.4105 34.5335 49 37 49C49 49 60.5 39.5 60.5 25" stroke="#7C4F2B" stroke-width="1.5" stroke-linecap="round" stroke-linejoin="round"/>
<path d="M13.8231 32.6186C12.2661 33.8642 11.5187 36.0441 13.2003 36.9783C16.0029 38.5353 31.0162 32.8105 36.9329 29.0737C42.8496 25.3368 50.3233 20.6658 54.3715 15.0605C58.4198 9.45522 57.4196 6.14928 53.0599 8.32912" stroke="#7C4F2B" stroke-width="1.5"/>
<defs>
<clipPath id="clip0_8490_16551">
<rect width="51.371" height="49.8246" fill="white" transform="translate(10.8335 0.232605)"/>
</clipPath>
</defs>
</svg>
